<svg width="100%" height="100%" viewBox="0 0 135 135" xmlns="http://www.w3.org/2000/svg" fill="#fff" xmlns:svg="http://www.w3.org/2000/svg" xmlns:xlink="http://www.w3.org/1999/xlink"><rect id="svgEditorBackground" x="0" y="0" width="135" height="135" style="fill: none; stroke: none;"/>
    <path d="M67.4469985961914,58c5.523002624511719,0,10,-4.477001190185547,10,-10s-4.476997375488281,-10,-10,-10s-10,4.477001190185547,-10,10s4.477001190185547,10,10,10ZM76.8949966430664,67.4469985961914c0,5.523002624511719,4.476997375488281,10,10,10c5.522003173828125,0,10,-4.476997375488281,10,-10s-4.477996826171875,-10,-10,-10c-5.523002624511719,0,-10,4.477001190185547,-10,10ZM67.4469985961914,76.8949966430664c-5.522998809814453,0,-10,4.476997375488281,-10,10c0,5.522003173828125,4.477001190185547,10,10,10s10,-4.477996826171875,10,-10c0,-5.523002624511719,-4.476997375488281,-10,-10,-10ZM58,67.4469985961914c0,-5.522998809814453,-4.477001190185547,-10,-10,-10s-10,4.477001190185547,-10,10s4.477001190185547,10,10,10s10,-4.476997375488281,10,-10Z" fill="silver">
        <animateTransform attributeName="transform" type="rotate" from="0 67 67" to="-360 67 67" dur="2.5s" repeatCount="indefinite"/>
    </path>
    <path d="M28.190000534057617,40.310001373291016c6.62700080871582,0,12.000001907348633,-5.374000549316406,12.000001907348633,-12c0,-6.628000259399414,-5.3730010986328125,-12,-12,-12c-6.628000259399414,0,-12,5.371999740600586,-12,12c0,6.625999450683594,5.371999740600586,12,12,12ZM58.90999984741211,20.485000610351562c4.686000823974609,4.687000274658203,12.284000396728516,4.687000274658203,16.96999740600586,0c4.685997009277344,-4.685999870300293,4.685997009277344,-12.284000396728516,0,-16.969999313354492c-4.685997009277344,-4.686999797821045,-12.284000396728516,-4.686999797821045,-16.970001220703125,0c-4.687000274658203,4.685999870300293,-4.687000274658203,12.284000396728516,0,16.969999313354492ZM94.6500015258789,28.190000534057617c0,6.62700080871582,5.370002746582031,12.000001907348633,12,12.000001907348633c6.625999450683594,0,12,-5.3730010986328125,12,-12c0,-6.628000259399414,-5.374000549316406,-12,-12,-12c-6.629997253417969,0,-12,5.371999740600586,-12,12ZM114.47200012207031,58.90999984741211c-4.685997009277344,4.686000823974609,-4.685997009277344,12.284000396728516,0,16.96999740600586c4.6869964599609375,4.685997009277344,12.285003662109375,4.685997009277344,16.970001220703125,0c4.6869964599609375,-4.685997009277344,4.6869964599609375,-12.284000396728516,0,-16.970001220703125c-4.68499755859375,-4.687000274658203,-12.282997131347656,-4.687000274658203,-16.970001220703125,0ZM106.76799774169922,94.6500015258789c-6.6269989013671875,0,-12,5.370002746582031,-12,12c0,6.625999450683594,5.3730010986328125,12,12,12s12,-5.374000549316406,12,-12c0,-6.629997253417969,-5.3730010986328125,-12,-12,-12ZM76.0479965209961,114.47200012207031c-4.685997009277344,-4.685997009277344,-12.284000396728516,-4.685997009277344,-16.970001220703125,0c-4.686000823974609,4.6869964599609375,-4.686000823974609,12.285003662109375,0,16.970001220703125c4.686000823974609,4.6869964599609375,12.284004211425781,4.6869964599609375,16.970001220703125,0c4.6869964599609375,-4.68499755859375,4.6869964599609375,-12.282997131347656,0,-16.970001220703125ZM40.3079948425293,106.76799774169922c0,-6.6269989013671875,-5.372001647949219,-12,-12,-12c-6.625999450683594,0,-12,5.3730010986328125,-12,12s5.374000549316406,12,12,12c6.627998352050781,0,12,-5.3730010986328125,12,-12ZM20.484994888305664,76.0479965209961c4.687000274658203,-4.685997009277344,4.687000274658203,-12.284000396728516,0,-16.970001220703125c-4.685999870300293,-4.686000823974609,-12.284000396728516,-4.686000823974609,-16.969999313354492,0c-4.686999797821045,4.686000823974609,-4.686999797821045,12.284004211425781,0,16.970001220703125c4.685999870300293,4.6869964599609375,12.284000396728516,4.6869964599609375,16.969999313354492,0Z" fill="silver">
        <animateTransform attributeName="transform" type="rotate" from="0 67 67" to="360 67 67" dur="8s" repeatCount="indefinite"/>
    </path>
</svg>