<svg width="100%" height="100%" viewBox="0 0 140 64" xmlns="http://www.w3.org/2000/svg" fill="#fff" xmlns:svg="http://www.w3.org/2000/svg" xmlns:xlink="http://www.w3.org/1999/xlink"><rect id="svgEditorBackground" x="0" y="0" width="140" height="64" style="fill: none; stroke: none;"/>
    <path d="M30.261999130249023,57.02000045776367l-23.066999435424805,-16.297000885009766c-5.840000152587891,-3.976001739501953,-7.559999942779541,-12.060001373291016,-3.8420000076293945,-18.062999725341797c3.7149996757507324,-6,11.466999053955078,-7.649999618530273,17.305999755859375,-3.6800003051757812l4.520000457763672,3.760000228881836l2.6000003814697266,-5.27400016784668c3.717000961303711,-6.001999855041504,11.469999313354492,-7.649999618530273,17.30499839782715,-3.6800003051757812c5.840000152587891,3.969999313354492,7.560001373291016,12.054000854492188,3.841999053955078,18.062000274658203l-14.435997009277344,24.270000457763672c-0.8969993591308594,1.5120010375976562,-2.792999267578125,1.9150009155273438,-4.228000640869141,0.9000015258789062Z" fill-opacity=".5" fill="silver">
        <animate attributeName="fill-opacity" begin="0s" dur="1.4s" values="0.5;1;0.5" calcMode="linear" repeatCount="indefinite"/>
    </path>
    <path d="M105.51200103759766,56.119998931884766l-14.44000244140625,-24.27199935913086c-3.71600341796875,-6.007999420166016,-1.996002197265625,-14.093000411987305,3.8430023193359375,-18.062000274658203c5.834999084472656,-3.9700002670288086,13.587997436523438,-2.322000503540039,17.305999755859375,3.6800003051757812l2.5999984741210938,5.27400016784668l4.519996643066406,-3.760000228881836c5.840003967285156,-3.9700002670288086,13.592002868652344,-2.3199996948242188,17.30699920654297,3.6800003051757812c3.7180023193359375,6.003000259399414,1.9980010986328125,14.088001251220703,-3.8419952392578125,18.06399917602539l-23.066001892089844,16.296001434326172c-1.4339981079101562,1.0139999389648438,-3.3300018310546875,0.6100006103515625,-4.227996826171875,-0.9000015258789062Z" fill-opacity=".5" fill="silver">
        <animate attributeName="fill-opacity" begin="0.7s" dur="1.4s" values="0.5;1;0.5" calcMode="linear" repeatCount="indefinite"/>
    </path>
    <path d="M67.40799713134766,57.83399963378906l-23.01000213623047,-24.979999542236328c-5.8639984130859375,-6.149999618530273,-5.8639984130859375,-16.107999801635742,0,-22.24799919128418c5.8600006103515625,-6.139999866485596,15.369998931884766,-6.139999866485596,21.23400115966797,0l4.368003845214844,5.56199836730957l4.3679962158203125,-5.562000274658203c5.862998962402344,-6.139999866485596,15.375,-6.139999866485596,21.235000610351562,0c5.862998962402344,6.1399993896484375,5.862998962402344,16.097999572753906,0,22.246997833251953l-23.007003784179688,24.979999542236328c-1.4300003051757812,1.555999755859375,-3.7570037841796875,1.555999755859375,-5.1880035400390625,0Z" fill="silver"/>
</svg>